<?xml version="1.0" standalone="no"?>
<!DOCTYPE svg PUBLIC "-//W3C//DTD SVG 20010904//EN"
 "http://www.w3.org/TR/2001/REC-SVG-20010904/DTD/svg10.dtd">
<svg version="1.0" xmlns="http://www.w3.org/2000/svg"
 width="271.000000pt" height="271.000000pt" viewBox="0 0 271.000000 271.000000"
 preserveAspectRatio="xMidYMid meet">
<metadata>
Created by potrace 1.14, written by Peter Selinger 2001-2017
</metadata>
<g transform="translate(0.000000,271.000000) scale(0.100000,-0.100000)"
fill="#000000" stroke="none">
<path d="M582 2547 c-9 -10 -8 -18 2 -32 18 -25 48 -13 44 17 -4 27 -30 35
-46 15z"/>
<path d="M691 2464 c-12 -15 -21 -32 -21 -39 0 -23 41 -65 65 -65 12 0 33 8
45 18 20 16 22 24 16 65 -7 47 -8 47 -46 47 -30 0 -43 -6 -59 -26z"/>
<path d="M1619 2453 c-13 -16 -12 -17 4 -4 9 7 17 15 17 17 0 8 -8 3 -21 -13z"/>
<path d="M490 2360 c-11 -11 -20 -31 -20 -45 0 -30 32 -65 60 -65 24 0 70 42
70 63 0 8 -9 26 -21 41 -25 31 -61 34 -89 6z"/>
<path d="M757 2333 c-2 -5 -7 -19 -10 -33 -5 -19 -18 -29 -49 -40 -34 -12 -55
-31 -105 -95 -34 -44 -62 -88 -62 -97 -1 -21 -2 -21 -36 -8 -22 8 -32 6 -52
-10 -59 -46 -148 -12 -159 60 -4 21 -12 41 -20 44 -9 3 -11 16 -7 39 4 29 1
37 -22 55 -34 27 -45 27 -79 1 -30 -23 -33 -54 -10 -88 14 -19 23 -22 57 -19
l40 4 45 -98 c42 -91 46 -97 71 -92 55 11 88 -50 49 -89 -20 -20 -22 -28 -14
-48 14 -35 14 -35 36 -11 27 29 66 38 105 24 30 -11 33 -10 88 43 77 75 220
167 317 204 43 17 84 31 90 31 16 0 12 25 -20 105 -16 42 -30 84 -30 94 0 29
-8 30 -75 12 -60 -17 -64 -17 -96 0 -38 20 -46 22 -52 12z m-198 -322 c25 -35
26 -49 4 -73 -20 -22 -66 -24 -87 -2 -24 23 -20 70 6 88 33 23 54 20 77 -13z"/>
<path d="M1779 2271 c-67 -21 -119 -89 -119 -153 0 -32 3 -35 87 -77 97 -48
212 -130 267 -191 29 -32 38 -37 43 -25 4 12 10 6 23 -23 19 -42 35 -52 81
-52 38 0 69 32 69 71 0 43 -16 67 -53 83 l-32 13 45 13 c64 19 126 14 167 -15
33 -22 33 -24 14 -30 -34 -10 -53 -47 -42 -78 18 -46 88 -48 108 -4 l10 22 13
-25 c21 -39 17 -120 -8 -170 -12 -24 -20 -46 -17 -48 2 -2 13 14 24 36 56 109
28 216 -77 293 -38 28 -39 30 -34 78 12 130 -96 259 -233 276 -38 5 -66 1
-113 -14 -62 -21 -62 -21 -90 -1 -31 23 -96 33 -133 21z"/>
<path d="M1200 2029 c-195 -23 -395 -123 -532 -266 -326 -343 -328 -879 -4
-1220 123 -130 254 -208 427 -254 117 -32 298 -32 422 -1 400 100 677 449 677
854 0 276 -105 505 -312 683 -128 110 -295 182 -473 204 -99 12 -98 12 -205 0z
m-181 -494 c31 -16 41 -39 34 -79 -6 -32 -57 -76 -86 -76 -20 1 -20 2 5 16 50
27 63 79 28 114 -11 11 -31 20 -44 20 -23 0 -25 -5 -31 -66 -10 -93 0 -165 25
-184 29 -22 21 -26 -45 -22 -53 4 -55 5 -36 19 19 13 21 24 21 123 0 83 -4
112 -15 124 -8 8 -15 17 -15 20 0 13 132 5 159 -9z m172 -11 c-17 -22 -21 -41
-21 -110 0 -45 3 -85 8 -88 4 -2 45 45 91 104 64 83 91 111 113 115 37 9 46 0
25 -23 -25 -27 -25 -217 0 -244 15 -17 14 -18 -32 -18 l-48 0 22 24 c19 21 22
32 19 102 -2 45 -7 79 -13 78 -5 0 -48 -47 -95 -104 -47 -57 -90 -105 -97
-107 -8 -3 -11 32 -10 128 1 112 -2 133 -16 144 -27 19 -20 25 29 25 l45 0
-20 -26z m389 18 c0 -4 -9 -13 -20 -20 -37 -23 -21 -123 24 -154 6 -4 28 -8
48 -8 51 0 78 35 78 101 0 38 -4 52 -20 61 -33 21 -23 28 35 28 58 0 68 -7 35
-28 -18 -11 -20 -23 -20 -110 0 -71 4 -104 15 -118 22 -30 18 -34 -31 -34 -45
0 -45 0 -30 22 9 12 16 35 16 51 0 24 -3 28 -17 21 -34 -14 -94 -16 -124 -4
-38 16 -59 56 -59 113 0 27 -6 49 -15 57 -26 22 -16 30 35 30 28 0 50 -3 50
-8z m-213 -367 c24 -6 24 -7 9 -24 -9 -10 -16 -28 -16 -40 0 -18 -3 -20 -17
-12 -10 5 -26 5 -40 0 -20 -7 -23 -5 -23 13 0 12 -7 30 -17 40 -15 17 -15 18
5 18 12 0 29 12 39 26 17 26 17 26 26 6 5 -11 21 -23 34 -27z m-162 -25 c-8
-13 -155 -13 -175 0 -10 7 16 10 83 10 63 0 96 -4 92 -10z m410 0 c-3 -5 -46
-10 -96 -10 -53 0 -89 4 -89 10 0 6 39 10 96 10 61 0 93 -4 89 -10z m-163
-100 c83 -23 126 -121 90 -203 -47 -107 -175 -128 -251 -42 -39 45 -48 93 -27
149 20 52 42 73 93 92 47 16 49 16 95 4z m-599 -12 c-6 -7 -13 -65 -16 -130
-7 -129 -8 -128 62 -128 56 0 61 11 61 132 0 87 -3 110 -15 114 -30 12 -14 24
30 24 45 0 45 0 31 -22 -18 -30 -21 -229 -3 -240 17 -11 75 -10 98 2 17 10 19
22 19 121 0 88 -3 111 -15 115 -31 12 -13 24 35 24 54 0 62 -8 30 -28 -18 -11
-20 -23 -20 -116 0 -59 4 -108 10 -111 6 -3 10 -13 10 -21 0 -12 -32 -14 -196
-14 -183 0 -196 1 -188 18 14 29 17 242 3 258 -10 12 -5 14 31 14 33 0 40 -3
33 -12z m833 -7 c-16 -17 -15 -22 9 -87 14 -38 30 -73 34 -77 8 -8 91 124 91
145 0 6 -8 17 -17 24 -16 12 -11 13 37 13 55 0 55 0 33 -18 -12 -10 -52 -70
-88 -132 -36 -63 -74 -121 -83 -130 -28 -28 -57 -31 -83 -10 -20 16 -21 21
-10 35 19 23 30 20 41 -9 8 -21 13 -24 29 -16 10 6 21 17 25 26 7 20 -71 222
-89 229 -32 12 -12 26 37 26 49 0 51 -1 34 -19z"/>
<path d="M1365 1031 c-38 -16 -58 -50 -63 -106 -8 -92 35 -155 104 -155 90 0
138 120 85 218 -22 41 -81 61 -126 43z"/>
<path d="M143 1753 c-25 -3 -43 -9 -42 -16 2 -30 38 -112 48 -109 7 1 28 -9
48 -22 19 -14 42 -22 51 -19 9 4 13 2 9 -4 -4 -6 4 -18 17 -27 13 -8 27 -29
31 -46 4 -16 11 -32 16 -35 5 -4 5 -14 -1 -25 -8 -16 -8 -18 5 -14 8 4 15 1
15 -5 0 -6 5 -11 10 -11 13 0 13 43 -1 74 -10 20 -8 28 11 48 36 38 53 92 25
82 -9 -4 -15 0 -15 8 0 8 -31 35 -70 59 -38 24 -70 49 -70 56 0 7 -10 12 -22
11 -13 -1 -42 -3 -65 -5z m117 -63 c0 -5 -5 -10 -11 -10 -5 0 -7 5 -4 10 3 6
8 10 11 10 2 0 4 -4 4 -10z m-40 -55 c0 -8 -4 -15 -9 -15 -13 0 -22 16 -14 24
11 11 23 6 23 -9z m93 9 c3 -3 3 -12 0 -19 -6 -17 -30 -9 -30 10 0 15 18 20
30 9z m40 -80 c-6 -17 -29 -19 -39 -3 -8 14 14 29 32 22 7 -2 10 -11 7 -19z"/>
<path d="M2243 1675 c-32 -32 -35 -39 -30 -78 7 -50 52 -97 95 -98 24 -1 21
-4 -23 -25 -27 -13 -41 -23 -30 -21 13 2 26 -7 37 -25 28 -44 66 -63 128 -63
30 0 61 -4 68 -8 22 -15 14 -65 -18 -99 l-29 -33 -31 37 c-31 38 -78 71 -117
83 -19 5 -23 2 -23 -14 0 -14 11 -25 33 -34 32 -14 87 -63 87 -78 0 -14 -35
-19 -70 -9 -39 11 -44 9 -36 -18 7 -22 33 -32 84 -32 38 0 40 -9 10 -37 -39
-35 -67 -46 -84 -32 -12 9 -14 6 -14 -19 0 -17 6 -32 15 -36 8 -3 15 -2 15 3
0 5 11 12 25 15 34 9 105 79 105 104 0 12 15 32 36 48 60 46 81 115 49 161
-13 18 -13 22 0 33 8 7 15 17 15 23 0 6 -7 4 -16 -5 -14 -14 -22 -11 -84 36
l-69 51 29 30 c26 28 28 34 20 75 -11 58 -55 100 -106 100 -28 0 -44 -8 -71
-35z m137 -216 c41 -25 80 -59 80 -71 0 -4 -17 -8 -39 -8 -50 0 -105 36 -109
73 -4 34 18 36 68 6z"/>
<path d="M123 1532 l-52 -34 41 -48 c40 -46 41 -47 69 -33 28 14 29 15 13 45
-9 16 -13 40 -11 52 3 11 2 28 -1 37 -6 14 -15 11 -59 -19z"/>
<path d="M210 1536 c0 -3 12 -32 26 -65 19 -44 32 -61 45 -61 24 0 24 0 -11
70 -17 33 -37 60 -45 60 -8 0 -15 -2 -15 -4z"/>
<path d="M2542 1465 c0 -16 2 -22 5 -12 2 9 2 23 0 30 -3 6 -5 -1 -5 -18z"/>
<path d="M267 1376 c-21 -8 -59 -30 -84 -50 -44 -34 -47 -35 -65 -19 -20 18
-24 12 -7 -15 9 -14 8 -26 -5 -51 -23 -44 -13 -84 34 -135 20 -23 40 -53 43
-67 9 -38 44 -77 87 -99 21 -11 41 -28 43 -37 4 -17 5 -16 6 1 1 12 6 16 16
12 17 -6 21 19 4 29 -6 4 -8 14 -4 24 5 13 4 14 -6 4 -7 -7 -19 -13 -25 -13
-15 0 -84 63 -84 77 0 5 24 9 53 8 47 0 52 2 55 23 3 22 1 23 -27 17 -17 -3
-40 -4 -51 0 -27 9 -12 36 35 65 31 19 49 60 27 60 -12 0 -83 -52 -101 -73
-20 -25 -39 -21 -61 16 -24 38 -25 56 -5 83 13 19 19 20 58 11 37 -8 51 -7 83
9 22 11 41 28 43 39 3 19 2 19 -15 3 -29 -25 -74 -40 -106 -33 -15 4 -28 10
-28 13 0 4 21 22 48 40 53 36 98 42 105 15 3 -10 5 -4 6 13 1 21 -5 34 -15 38
-9 3 -16 6 -17 6 -1 -1 -19 -7 -40 -14z"/>
<path d="M91 1344 c0 -11 3 -14 6 -6 3 7 2 16 -1 19 -3 4 -6 -2 -5 -13z"/>
<path d="M2534 989 c-10 -17 13 -36 27 -22 12 12 4 33 -11 33 -5 0 -12 -5 -16
-11z"/>
<path d="M2415 940 c-55 -21 -66 -88 -21 -127 35 -30 71 -29 101 2 31 30 32
66 3 99 -27 29 -55 38 -83 26z"/>
<path d="M2246 798 c-13 -19 -14 -25 -2 -43 26 -40 86 -27 86 19 0 47 -57 63
-84 24z"/>
<path d="M176 463 c-12 -12 -6 -33 9 -33 8 0 15 6 15 14 0 17 -14 28 -24 19z"/>
</g>
</svg>
