<svg id="Capa_1" enable-background="new 0 0 506.897 506.897" height="512" viewBox="0 0 506.897 506.897" width="512" xmlns="http://www.w3.org/2000/svg"><g><g><path d="m327.206 506.897c-5.522 0-10-4.477-10-10v-125.654c0-5.523 4.478-10 10-10 5.523 0 10 4.477 10 10v125.654c0 5.523-4.477 10-10 10z" fill="#d0844b"/></g><path d="m319.194 348.18-20.205 27.429c-4.841 6.571-.149 15.854 8.013 15.854h40.409c8.161 0 12.853-9.283 8.013-15.854l-20.205-27.429c-3.977-5.4-12.048-5.4-16.025 0z" fill="#ffe266"/><path d="m432.64 222.513c0 54.259-47.204 138.62-105.434 138.62s-105.434-84.361-105.434-138.62 47.204-98.245 105.434-98.245 105.434 43.986 105.434 98.245z" fill="#ffe266"/><path d="m327.207 124.268c-3.85 0-7.65.198-11.393.572 41.684 4.615 74.016 37.643 74.016 77.727 0 43.244-37.621 110.478-84.029 110.478-43.08 0-78.582-57.934-83.453-100.835-.379 3.386-.576 6.823-.576 10.303 0 54.259 47.204 138.62 105.434 138.62 58.229 0 105.434-84.361 105.434-138.62.001-54.259-47.204-98.245-105.433-98.245z" fill="#efaa66"/><g><path d="m148.564 506.897c-5.523 0-10-4.477-10-10v-144.083c0-5.523 4.477-10 10-10s10 4.477 10 10v144.083c0 5.523-4.477 10-10 10z" fill="#518699"/></g><path d="m139.376 326.368-23.168 31.452c-5.55 7.535-.17 18.18 9.188 18.18h46.336c9.358 0 14.738-10.645 9.188-18.18l-23.168-31.452c-4.561-6.191-13.816-6.191-18.376 0z" fill="#78eac4"/><path d="m269.461 182.27c0 62.217-54.128 158.951-120.897 158.951s-120.898-96.733-120.898-158.951c0-62.217 54.128-112.654 120.898-112.654s120.897 50.437 120.897 112.654z" fill="#78eac4"/><path d="m148.563 69.616c-4.242 0-8.433.206-12.563.603 48.363 5.178 85.922 43.45 85.922 89.903 0 49.985-43.486 127.7-97.128 127.7-49.943 0-91.075-67.362-96.512-116.994-.407 3.762-.617 7.579-.617 11.442 0 62.218 54.128 158.951 120.897 158.951 66.77 0 120.898-96.733 120.898-158.951.001-62.217-54.127-112.654-120.897-112.654z" fill="#71afc4"/><g><path d="m108.515 130.155c-3.674 0-7.21-2.032-8.959-5.544-2.462-4.943-.451-10.947 4.493-13.41 3.314-1.651 6.767-3.134 10.26-4.409 5.188-1.893 10.929.779 12.821 5.968 1.893 5.188-.779 10.929-5.968 12.821-2.793 1.019-5.55 2.204-8.197 3.522-1.431.714-2.953 1.052-4.45 1.052z" fill="#fff"/></g><g><path d="m69.587 172.01c-1.155 0-2.329-.202-3.476-.627-5.178-1.92-7.819-7.675-5.898-12.854 4.004-10.797 10.621-21.029 19.134-29.59 3.894-3.917 10.226-3.933 14.142-.04 3.916 3.894 3.934 10.226.039 14.142-6.511 6.547-11.546 14.308-14.563 22.442-1.496 4.033-5.316 6.527-9.378 6.527z" fill="#fff"/></g><path d="m446.395 43.239 8.214 23.098c.352.989 1.048 1.773 1.927 2.169l20.521 9.246c2.899 1.306 2.899 5.925 0 7.232l-20.521 9.246c-.879.396-1.575 1.18-1.927 2.168l-8.214 23.098c-1.16 3.263-5.265 3.263-6.425 0l-8.214-23.098c-.352-.989-1.048-1.773-1.927-2.168l-20.521-9.246c-2.899-1.306-2.899-5.925 0-7.232l20.521-9.246c.879-.396 1.575-1.18 1.927-2.169l8.214-23.098c1.16-3.264 5.264-3.264 6.425 0z" fill="#ccf3e2"/><path d="m288.471 4.927 6.093 17.133c.261.734.777 1.315 1.429 1.609l15.222 6.858c2.151.969 2.151 4.395 0 5.364l-15.222 6.858c-.652.294-1.168.875-1.429 1.609l-6.093 17.133c-.861 2.421-3.905 2.421-4.766 0l-6.093-17.133c-.261-.734-.777-1.315-1.429-1.609l-15.222-6.858c-2.15-.969-2.15-4.395 0-5.364l15.222-6.858c.652-.294 1.168-.875 1.429-1.609l6.093-17.133c.861-2.421 3.905-2.421 4.766 0z" fill="#ccf3e2"/><circle cx="391.684" cy="7.737" fill="#78eac4" r="7.737"/></g></svg>