<svg width="42" height="43" viewBox="0 0 42 43" fill="none" xmlns="http://www.w3.org/2000/svg">
<path d="M21 39.8751C17.3658 39.8751 13.8132 38.7974 10.7914 36.7783C7.76965 34.7592 5.41448 31.8895 4.02372 28.5319C2.63296 25.1743 2.26908 21.4797 2.97808 17.9153C3.68708 14.3509 5.43713 11.0768 8.00692 8.50693C10.5767 5.93714 13.8508 4.18709 17.4152 3.47808C20.9796 2.76908 24.6742 3.13297 28.0318 4.52373C31.3894 5.91449 34.2592 8.26966 36.2783 11.2915C38.2973 14.3132 39.375 17.8658 39.375 21.5001C39.375 26.3734 37.4391 31.0472 33.9931 34.4931C30.5471 37.9391 25.8734 39.8751 21 39.8751ZM21 5.75001C17.885 5.75001 14.8399 6.67373 12.2498 8.40437C9.6597 10.135 7.64099 12.5949 6.44891 15.4728C5.25683 18.3507 4.94492 21.5175 5.55264 24.5727C6.16036 27.6279 7.6604 30.4343 9.86308 32.637C12.0658 34.8397 14.8721 36.3397 17.9273 36.9474C20.9825 37.5551 24.1493 37.2432 27.0273 36.0512C29.9052 34.8591 32.365 32.8404 34.0957 30.2503C35.8263 27.6602 36.75 24.6151 36.75 21.5001C36.75 17.3229 35.0906 13.3168 32.1369 10.3631C29.1832 7.40937 25.1772 5.75001 21 5.75001Z" fill="#A7D27F"/>
<path d="M27.0244 29.0439L19.6875 21.7071V9.35645H22.3125V20.6177L28.875 27.1933L27.0244 29.0439Z" fill="#A7D27F"/>
</svg>
