<svg width="481" height="481" viewBox="0 0 481 481" fill="none" xmlns="http://www.w3.org/2000/svg">
<g clip-path="url(#clip0)">
<path d="M327.417 301.136C325.919 296.979 321.335 294.824 317.179 296.322C313.022 297.82 310.867 302.404 312.365 306.56C312.402 306.662 312.441 306.763 312.482 306.864C319.778 325.904 320.306 340.464 313.922 346.864C306.178 354.592 286.89 352.176 262.314 340.416C229.412 323.332 199.505 301.014 173.762 274.336C111.098 211.664 85.242 150.168 101.234 134.176C106.337 130.146 112.97 128.598 119.33 129.952C123.736 130.276 127.571 126.966 127.895 122.56C128.208 118.301 125.121 114.547 120.882 114.032C109.759 112.064 98.347 115.307 89.922 122.832C60.61 152.136 105.418 228.576 162.45 285.616C189.471 313.578 220.869 336.949 255.41 354.808C261.665 357.803 268.111 360.382 274.706 362.528L217.866 384.08C141.966 355.224 87.327 287.936 74.666 207.728C73.981 203.363 69.887 200.379 65.522 201.064C61.157 201.749 58.173 205.843 58.858 210.208C60.114 218.208 61.794 226.208 63.85 234.032C82.272 303.831 130.793 361.816 196.25 392.256L102.698 427.656C102.269 426.94 101.729 426.298 101.098 425.752C77.322 406.663 62.404 378.668 59.818 348.288L56.106 303.336C55.814 298.981 52.046 295.687 47.69 295.979C47.607 295.985 47.524 295.991 47.442 296C43.038 296.35 39.751 300.205 40.101 304.609C40.102 304.627 40.104 304.646 40.106 304.664L43.882 349.6C46.694 382.073 61.842 412.233 86.21 433.88L19.474 459.144L31.474 409.896C32.521 405.601 29.889 401.271 25.594 400.224C21.299 399.177 16.969 401.809 15.922 406.104L0.313965 470.104C-0.738035 474.395 1.88797 478.727 6.17997 479.778C7.75397 480.164 9.40696 480.062 10.922 479.488L306.922 367.488C307.393 367.258 307.838 366.979 308.25 366.656C314.656 365.672 320.595 362.71 325.234 358.184C333.161 350.256 339.985 333.912 327.417 301.136Z" fill="#F2F2F2"/>
<path d="M402.913 280.504C359.666 264.314 312.923 259.775 267.369 267.344L238.785 272.144C234.446 272.978 231.605 277.171 232.439 281.51C233.245 285.702 237.2 288.523 241.425 287.92L270.001 283.16C312.783 276.047 356.684 280.313 397.297 295.528C398.198 295.847 399.149 296.007 400.105 296C404.523 296.007 408.111 292.432 408.118 288.013C408.124 284.668 406.048 281.673 402.913 280.504Z" fill="#F2F2F2"/>
<path d="M431.353 156.56C429.453 152.57 424.679 150.876 420.689 152.776L252.689 232.776C248.7 234.675 247.005 239.448 248.904 243.438C248.904 243.439 248.905 243.44 248.905 243.44C250.804 247.429 255.577 249.124 259.567 247.225C259.568 247.225 259.568 247.224 259.569 247.224L427.569 167.224C431.559 165.324 433.253 160.55 431.353 156.56Z" fill="#F2F2F2"/>
<path d="M194.377 54.296C193.497 49.966 189.274 47.169 184.944 48.049C180.614 48.929 177.817 53.152 178.697 57.482C178.716 57.578 178.738 57.673 178.761 57.768C188.887 103.007 184.714 150.275 166.817 193.04L155.185 220.952C153.504 225.019 155.423 229.68 159.481 231.384C160.453 231.793 161.498 232.002 162.553 232C165.782 232 168.694 230.06 169.937 227.08L181.577 199.2C200.752 153.391 205.225 102.757 194.377 54.296Z" fill="#F2F2F2"/>
<path d="M440.105 288C426.85 288 416.105 298.745 416.105 312C416.105 325.255 426.85 336 440.105 336C453.36 336 464.105 325.255 464.105 312C464.105 298.745 453.36 288 440.105 288ZM440.105 320C435.687 320 432.105 316.418 432.105 312C432.105 307.582 435.687 304 440.105 304C444.523 304 448.105 307.582 448.105 312C448.105 316.418 444.523 320 440.105 320Z" fill="#F2F2F2"/>
<path d="M248.105 64C234.85 64 224.105 74.745 224.105 88C224.105 101.255 234.85 112 248.105 112C261.36 112 272.105 101.255 272.105 88C272.105 74.745 261.36 64 248.105 64ZM248.105 96C243.687 96 240.105 92.418 240.105 88C240.105 83.582 243.687 80 248.105 80C252.523 80 256.105 83.582 256.105 88C256.105 92.418 252.523 96 248.105 96Z" fill="#F2F2F2"/>
<path d="M176.105 32C184.942 32 192.105 24.8366 192.105 16C192.105 7.16344 184.942 0 176.105 0C167.269 0 160.105 7.16344 160.105 16C160.105 24.8366 167.269 32 176.105 32Z" fill="#F2F2F2"/>
<path d="M400.105 40C395.687 40 392.105 43.582 392.105 48V56C392.105 60.418 395.687 64 400.105 64C404.523 64 408.105 60.418 408.105 56V48C408.105 43.582 404.523 40 400.105 40Z" fill="#F2F2F2"/>
<path d="M400.105 0C395.687 0 392.105 3.582 392.105 8V16C392.105 20.418 395.687 24 400.105 24C404.523 24 408.105 20.418 408.105 16V8C408.105 3.582 404.523 0 400.105 0Z" fill="#F2F2F2"/>
<path d="M424.105 24H416.105C411.687 24 408.105 27.582 408.105 32C408.105 36.418 411.687 40 416.105 40H424.105C428.523 40 432.105 36.418 432.105 32C432.105 27.582 428.523 24 424.105 24Z" fill="#F2F2F2"/>
<path d="M384.105 24H376.105C371.687 24 368.105 27.582 368.105 32C368.105 36.418 371.687 40 376.105 40H384.105C388.523 40 392.105 36.418 392.105 32C392.105 27.582 388.523 24 384.105 24Z" fill="#F2F2F2"/>
<path d="M344.105 87.832H303.938C299.519 87.832 295.938 91.414 295.938 95.832V136C295.938 140.418 299.519 144 303.938 144H344.105C348.523 144 352.105 140.418 352.105 136V95.832C352.105 91.414 348.523 87.832 344.105 87.832ZM336.105 128H311.938V103.832H336.105V128Z" fill="#F2F2F2"/>
<path d="M285.826 154.636C282.889 151.501 278.001 151.245 274.753 154.056L194.753 226.056C191.471 229.012 191.206 234.069 194.161 237.352C197.117 240.634 202.174 240.899 205.457 237.944L285.457 165.944C288.682 162.923 288.847 157.861 285.826 154.636Z" fill="#F2F2F2"/>
<path d="M432.105 184C427.687 184 424.105 187.582 424.105 192V200C424.105 204.418 427.687 208 432.105 208C436.523 208 440.105 204.418 440.105 200V192C440.105 187.582 436.523 184 432.105 184Z" fill="#F2F2F2"/>
<path d="M466.049 182.624L460.393 176.968C457.215 173.898 452.151 173.986 449.081 177.164C446.087 180.264 446.087 185.179 449.081 188.28L454.737 193.936C457.915 197.006 462.979 196.918 466.049 193.74C469.044 190.639 469.044 185.724 466.049 182.624Z" fill="#F2F2F2"/>
<path d="M472.105 152H464.105C459.687 152 456.105 155.582 456.105 160C456.105 164.418 459.687 168 464.105 168H472.105C476.523 168 480.105 164.418 480.105 160C480.105 155.582 476.523 152 472.105 152Z" fill="#F2F2F2"/>
<path d="M465.853 126.064C462.753 123.07 457.838 123.07 454.737 126.064L449.081 131.72C445.957 134.845 445.958 139.91 449.083 143.034C450.583 144.533 452.617 145.376 454.737 145.376C456.859 145.376 458.893 144.532 460.393 143.032L466.049 137.376C469.119 134.198 469.031 129.133 465.853 126.064Z" fill="#F2F2F2"/>
<path d="M432.105 112C427.687 112 424.105 115.582 424.105 120V128C424.105 132.418 427.687 136 432.105 136C436.523 136 440.105 132.418 440.105 128V120C440.105 115.582 436.523 112 432.105 112Z" fill="#F2F2F2"/>
<path d="M415.129 131.72L409.473 126.064C406.295 122.995 401.231 123.082 398.161 126.26C395.167 129.36 395.167 134.275 398.161 137.376L403.817 143.032C406.995 146.102 412.059 146.014 415.129 142.836C418.124 139.735 418.124 134.82 415.129 131.72Z" fill="#F2F2F2"/>
<path d="M95.7128 34.592C94.7708 31.698 92.2678 29.59 89.2568 29.152L65.7768 25.736L55.3048 4.46405C52.9708 0.501047 47.8658 -0.819953 43.9028 1.51405C42.6848 2.23105 41.6698 3.24605 40.9528 4.46405L30.4328 25.736L6.95278 29.152C2.57978 29.783 -0.453224 33.84 0.177776 38.213C0.428776 39.954 1.24678 41.563 2.50478 42.792L19.4888 59.352L15.4888 82.736C14.7208 87.087 17.6248 91.237 21.9758 92.005C23.7278 92.314 25.5318 92.031 27.1048 91.2L48.1048 80.128L69.1048 91.168C73.0158 93.224 77.8528 91.721 79.9088 87.81C80.7278 86.253 81.0098 84.47 80.7128 82.736L76.7128 59.352L93.7048 42.792C95.8798 40.663 96.6578 37.485 95.7128 34.592ZM62.5048 50.832C60.6208 52.667 59.7598 55.311 60.2008 57.904L62.1848 69.464L51.8248 64C49.4958 62.777 46.7138 62.777 44.3848 64L33.9848 69.456L35.9688 57.896C36.4178 55.313 35.5718 52.673 33.7048 50.832L25.2968 42.648L36.9048 40.96C39.5108 40.582 41.7638 38.945 42.9288 36.584L48.1048 26.08L53.2888 36.584C54.4528 38.943 56.7018 40.579 59.3048 40.96L70.9048 42.648L62.5048 50.832Z" fill="#F2F2F2"/>
<path d="M453.081 401H453.049L449.753 396.056C431.272 368.419 402.211 349.627 369.425 344.112C365.051 343.488 360.999 346.528 360.375 350.902C359.772 355.128 362.593 359.083 366.785 359.888C390.433 363.902 411.984 375.916 427.833 393.92C414.508 396.317 402.854 404.32 395.833 415.896C387.217 431.327 392.742 450.82 408.173 459.436C423.604 468.052 443.097 462.527 451.713 447.096C455.004 440.743 456.781 433.714 456.905 426.56C465.417 438.923 466.098 455.068 458.657 468.104C456.403 471.904 457.656 476.812 461.456 479.066C465.256 481.32 470.164 480.067 472.418 476.267C472.49 476.145 472.559 476.022 472.625 475.896C487.273 449.732 478.645 416.671 453.081 401ZM437.761 439.288C433.491 447.025 423.758 449.835 416.022 445.565C408.286 441.295 405.475 431.562 409.745 423.826C409.769 423.783 409.793 423.739 409.817 423.696C414.538 415.966 422.501 410.784 431.481 409.6C432.872 409.562 434.249 409.882 435.481 410.528C442.233 414.296 442.593 430.632 437.761 439.288Z" fill="#F2F2F2"/>
</g>
<defs>
<clipPath id="clip0">
<rect width="480.187" height="480.187" fill="white"/>
</clipPath>
</defs>
</svg>
