<svg id="Capa_1" enable-background="new 0 0 505.492 505.492" height="512" viewBox="0 0 505.492 505.492" width="512" xmlns="http://www.w3.org/2000/svg"><g><path d="m166.407 497.781c-6.699 0-13.492-1.625-19.791-5.051l-57.863-31.471c-21.852-11.883-35.428-34.453-35.428-58.9v-47.979c0-24.448 13.576-47.018 35.43-58.902l61.611-34.488-74.024-41.614c-20.135-10.951-27.579-36.15-16.629-56.285 10.95-20.134 36.149-27.578 56.285-16.629l57.863 31.471c21.854 11.887 35.428 34.456 35.428 58.901v47.979c0 24.446-13.575 47.016-35.428 58.901l-64.37 32.713 76.781 43.391c20.135 10.951 27.579 36.15 16.629 56.285-7.525 13.834-21.78 21.678-36.494 21.678z" fill="#b2e7f1"/><path d="m150.366 260.989-61.611 34.489c-18.783 10.214-31.442 28.325-34.631 48.734 16.515 9.907 55.368 32.214 55.368 32.214l64.37-32.712c19.673-10.7 32.632-30.061 35.022-51.653-17.545-9.049-41.121-21.756-58.518-31.072z" fill="#8bb6ef"/><path d="m186.272 419.817-12.506-7.068c-6.19 10.682-17.427 16.731-29.032 16.731-5.415 0-10.906-1.313-15.998-4.083l-46.773-25.439c-17.36-9.441-28.251-27.227-28.62-46.596-.005.339-.017.677-.017 1.017v47.979c0 24.447 13.576 47.017 35.428 58.9l57.863 31.471c6.299 3.426 13.092 5.051 19.791 5.051 14.714 0 28.969-7.844 36.494-21.68 10.949-20.133 3.505-45.333-16.63-56.283z" fill="#a7adf1"/><path d="m173.861 177.932-57.863-31.471c-7.666-4.169-16.065-5.664-24.133-4.815 4.132.483 8.243 1.738 12.122 3.847l46.773 25.44c17.665 9.608 28.638 27.852 28.638 47.612v38.784c0 19.761-10.973 38.005-28.638 47.612l-87.397 44.746 46.129 26.739 64.37-32.712c21.852-11.885 35.428-34.455 35.428-58.901v-47.979c-.001-24.446-13.575-47.015-35.429-58.902z" fill="#a7adf1"/><path d="m208.883 292.065c0-.001 0-.003.001-.004-9.676-4.99-21.186-11.093-32.483-17.126-4.395 12.566-13.413 23.356-25.641 30.007l-87.397 44.746 46.129 26.739 64.37-32.712c19.671-10.701 32.629-30.06 35.021-51.65z" fill="#8388ef"/><path d="m424.47 245.619 19.974-24.94c0-24.448-13.576-47.018-35.43-58.902l-61.611-34.488 74.024-41.614c20.135-10.951 27.579-36.15 16.629-56.285-10.95-20.134-36.149-27.578-56.285-16.629l-57.863 31.471c-21.854 11.887-35.428 34.456-35.428 58.901v47.979c0 24.446 13.575 47.016 35.428 58.901l64.37 32.713z" fill="#fef2a8"/><path d="m409.015 161.777-61.611-34.488c-16.992 10.968-40.404 26.669-57.486 37.493 4.023 18.966 16.291 35.604 33.991 45.232l56.119 28.52 8.251 4.193c18.045-10.899 35.824-23.747 55.409-31.953-3.123-20.517-15.81-38.739-34.673-48.997z" fill="#ffe266"/><path d="m409.015 161.777-61.346-34.638 73.759-41.464c20.135-10.951 27.579-36.15 16.629-56.285-9.918-18.235-31.524-26.061-50.471-19.239 6.509 2.693 12.174 7.544 15.802 14.214 8.412 15.468 2.693 34.827-12.775 43.24l-102.133 57.579v25.929c0 4.77.523 9.466 1.518 14.028l33.735-21.901 81.767 53.481c9.255 6.359 12.948 18.383 8.52 28.702-10.084 10.723-102.523 60.694-102.523 60.694-20.135 10.951-27.579 36.15-16.629 56.285 7.525 13.835 21.78 21.68 36.494 21.68 6.699 0 13.492-1.625 19.791-5.051l57.863-31.471c21.852-11.883 35.428-34.453 35.428-58.9v-47.979c.001-24.449-13.576-47.019-35.429-58.904z" fill="#eeb6a8"/><path d="m443.687 210.773c-3.122-20.516-15.809-38.738-34.672-48.996l-61.346-34.638c-16.988 10.965-23.936 16.1-23.936 16.1l81.767 53.481c9.255 6.359 12.948 18.383 8.52 28.702-1.072 1.218 17.161-9.409 29.667-14.649z" fill="#efaa66"/><ellipse cx="189.118" cy="61.354" fill="#78eac4" rx="33.697" ry="33.697" transform="matrix(.16 -.987 .987 .16 98.263 238.202)"/><ellipse cx="457.604" cy="388.537" fill="#ef8bbd" rx="33.697" ry="33.697" transform="matrix(.707 -.707 .707 .707 -140.708 437.375)"/><path d="m298.813 400.495 8.545 24.027c.366 1.029 1.09 1.844 2.004 2.256l21.347 9.617c3.016 1.359 3.016 6.164 0 7.523l-21.347 9.618c-.914.412-1.638 1.227-2.004 2.256l-8.545 24.027c-1.207 3.394-5.476 3.394-6.684 0l-8.545-24.027c-.366-1.029-1.09-1.844-2.004-2.256l-21.347-9.618c-3.016-1.359-3.016-6.164 0-7.523l21.347-9.617c.914-.412 1.638-1.227 2.004-2.256l8.545-24.027c1.208-3.394 5.477-3.394 6.684 0z" fill="#ccf3e2"/><path d="m480.155 96.255 6.338 17.822c.271.763.809 1.368 1.487 1.673l15.835 7.134c2.237 1.008 2.237 4.572 0 5.58l-15.835 7.134c-.678.305-1.215.91-1.487 1.673l-6.338 17.822c-.895 2.518-4.062 2.518-4.958 0l-6.338-17.822c-.271-.763-.809-1.368-1.487-1.673l-15.835-7.134c-2.237-1.008-2.237-4.572 0-5.58l15.835-7.134c.678-.305 1.215-.91 1.487-1.673l6.338-17.822c.895-2.518 4.062-2.518 4.958 0z" fill="#b2e7f1"/><path d="m30.295 231.333 6.338 17.822c.271.763.809 1.368 1.487 1.673l15.835 7.134c2.237 1.008 2.237 4.572 0 5.58l-15.835 7.134c-.678.306-1.215.91-1.487 1.673l-6.338 17.823c-.895 2.518-4.062 2.518-4.958 0l-6.338-17.823c-.271-.763-.809-1.368-1.487-1.673l-15.835-7.134c-2.237-1.008-2.237-4.572 0-5.58l15.835-7.134c.678-.305 1.215-.91 1.487-1.673l6.338-17.822c.896-2.518 4.063-2.518 4.958 0z" fill="#fef2a8"/><circle cx="232.337" cy="141.898" fill="#8bb6ef" r="8.049"/><circle cx="285.404" cy="245.619" fill="#78eac4" r="8.049"/><circle cx="73.516" cy="66.169" fill="#ef8bbd" r="18.658"/><circle cx="396.74" cy="466.58" fill="#ffe266" r="18.658"/></g></svg>