<svg width="23" height="17" viewBox="0 0 23 17" fill="none" xmlns="http://www.w3.org/2000/svg">
<g clip-path="url(#clip0)">
<path d="M20.2218 0.777588H2.5262C1.3394 0.777588 0.374023 1.81587 0.374023 3.0893V14.391C0.374023 15.6658 1.34073 16.7027 2.5262 16.7027H20.2218C21.4068 16.7027 22.374 15.6664 22.374 14.391V3.0893C22.374 1.81633 21.4091 0.777588 20.2218 0.777588ZM20.1638 2.31876C19.7989 2.71079 12.1342 10.9436 11.8813 11.2153C11.6009 11.5165 11.1472 11.5165 10.8667 11.2153C10.6136 10.9433 2.94901 2.7106 2.58421 2.31876H20.1638ZM1.80879 14.3287V3.66534L6.7725 8.99699L1.80879 14.3287ZM3.06245 15.1615L7.78703 10.0867L9.85216 12.3049C10.6912 13.2062 12.0566 13.2063 12.8958 12.3049L14.9609 10.0867L19.6856 15.1615H3.06245ZM20.9393 14.3287L15.9755 8.99699L20.9392 3.66534V14.3287H20.9393Z" fill="#9B806F"/>
</g>
<defs>
<clipPath id="clip0">
<rect width="22" height="16" fill="white" transform="translate(0.374023 0.702637)"/>
</clipPath>
</defs>
</svg>
