<svg width="301" height="11" viewBox="0 0 301 11" fill="none" xmlns="http://www.w3.org/2000/svg">
<path d="M300.396 10.4092C287.119 10.4092 283.674 0.409182 270.397 0.40918C257.119 0.409177 253.674 10.4092 240.396 10.4092H300.396Z" fill="#97C12D"/>
<path d="M210.396 0.40918C197.119 0.40918 193.674 10.4092 180.397 10.4092H240.396C227.119 10.4092 223.674 0.40918 210.396 0.40918Z" fill="#97C12D"/>
<path d="M150.396 0.40918C137.119 0.40918 133.674 10.4092 120.396 10.4092H180.397C167.119 10.4092 163.674 0.40918 150.396 0.40918Z" fill="#97C12D"/>
<path d="M90.3965 0.40918C77.1187 0.409178 73.6743 10.4092 60.3965 10.4092H120.396C107.119 10.4092 103.674 0.409181 90.3965 0.40918Z" fill="#97C12D"/>
<path d="M30.3965 0.40918C17.1187 0.40918 13.6743 10.4092 0.396484 10.4092H60.3965C47.1187 10.4092 43.6743 0.40918 30.3965 0.40918Z" fill="#97C12D"/>
</svg>
