<svg width="301" height="11" viewBox="0 0 301 11" fill="none" xmlns="http://www.w3.org/2000/svg">
<path d="M300.669 10.1396C287.391 10.1396 283.947 0.139651 270.669 0.139648C257.391 0.139646 253.947 10.1397 240.669 10.1396H300.669Z" fill="#C44890"/>
<path d="M210.669 0.139648C197.391 0.139648 193.947 10.1396 180.669 10.1396H240.669C227.391 10.1396 223.947 0.139648 210.669 0.139648Z" fill="#C44890"/>
<path d="M150.669 0.139648C137.391 0.139648 133.947 10.1397 120.669 10.1396H180.669C167.391 10.1397 163.947 0.139648 150.669 0.139648Z" fill="#C44890"/>
<path d="M90.6689 0.139648C77.3911 0.139647 73.9468 10.1396 60.6689 10.1396H120.669C107.391 10.1396 103.947 0.13965 90.6689 0.139648Z" fill="#C44890"/>
<path d="M30.6689 0.139648C17.3911 0.139648 13.9468 10.1396 0.668945 10.1396H60.6689C47.3911 10.1396 43.9468 0.139648 30.6689 0.139648Z" fill="#C44890"/>
</svg>
