<svg width="21" height="21" viewBox="0 0 21 21" fill="none" xmlns="http://www.w3.org/2000/svg">
<path d="M10.1387 1.93311C8.31598 1.93526 6.56854 2.66027 5.2797 3.94912C3.99085 5.23797 3.26583 6.9854 3.26368 8.80811C3.2615 10.2976 3.74804 11.7467 4.64868 12.9331C4.64868 12.9331 4.83618 13.18 4.8668 13.2156L10.1387 19.4331L15.4131 13.2125C15.4406 13.1794 15.6287 12.9331 15.6287 12.9331L15.6293 12.9312C16.5295 11.7454 17.0158 10.2969 17.0137 8.80811C17.0115 6.9854 16.2865 5.23797 14.9977 3.94912C13.7088 2.66027 11.9614 1.93526 10.1387 1.93311ZM10.1387 11.3081C9.64423 11.3081 9.16088 11.1615 8.74975 10.8868C8.33863 10.6121 8.0182 10.2216 7.82898 9.76481C7.63976 9.308 7.59025 8.80533 7.68672 8.32038C7.78318 7.83543 8.02128 7.38997 8.37091 7.04034C8.72054 6.69071 9.166 6.45261 9.65095 6.35614C10.1359 6.25968 10.6386 6.30919 11.0954 6.49841C11.5522 6.68763 11.9426 7.00806 12.2174 7.41918C12.4921 7.8303 12.6387 8.31365 12.6387 8.80811C12.6379 9.47089 12.3742 10.1063 11.9055 10.575C11.4369 11.0436 10.8015 11.3073 10.1387 11.3081Z" fill="black"/>
</svg>
