<svg width="192" height="192" viewBox="0 0 192 192" fill="none" xmlns="http://www.w3.org/2000/svg">
<path d="M184 103.834H8C3.58398 103.834 0 100.25 0 95.834C0 91.418 3.58398 87.834 8 87.834H184C188.416 87.834 192 91.418 192 95.834C192 100.25 188.416 103.834 184 103.834Z" fill="#F2F2F2"/>
<path d="M184 42.5H8C3.58398 42.5 0 38.916 0 34.5C0 30.084 3.58398 26.5 8 26.5H184C188.416 26.5 192 30.084 192 34.5C192 38.916 188.416 42.5 184 42.5Z" fill="#F2F2F2"/>
<path d="M184 165.166H8C3.58398 165.166 0 161.582 0 157.166C0 152.75 3.58398 149.166 8 149.166H184C188.416 149.166 192 152.75 192 157.166C192 161.582 188.416 165.166 184 165.166Z" fill="#F2F2F2"/>
</svg>
