<svg width="182" height="182" viewBox="0 0 182 182" fill="none" xmlns="http://www.w3.org/2000/svg">
<g clip-path="url(#clip0)">
<path d="M175.522 1.12109C175.481 1.11614 175.446 1.11967 175.406 1.11755C175.396 1.11366 175.386 1.1073 175.375 1.10447C173.107 0.352199 170.227 1.36713 168.009 1.96068C165.133 2.73027 162.668 4.42076 159.928 5.51912C156.939 6.71788 153.797 7.51116 150.747 8.52927C147.778 9.51946 144.935 10.9293 141.928 11.7947C130.264 15.1516 119.552 20.998 108.066 24.9248C105.086 25.9443 102.347 27.1989 99.5231 28.5826C96.7222 29.956 93.6181 30.8157 90.6751 31.8437C84.822 33.8895 79.0955 36.3771 73.4075 38.8432C67.3677 41.4617 61.1859 43.6701 55.2264 46.4678C52.4198 47.785 49.5161 48.3067 46.6456 49.3814C43.6146 50.5162 40.7175 51.5629 37.5897 52.4566C34.5187 53.3337 31.743 54.8159 28.7869 55.9673C25.6626 57.1848 22.7705 58.7526 19.4552 59.4883C16.1064 60.2314 13.2935 61.8013 10.0504 62.8986C7.56913 63.7382 4.21537 64.3897 2.10349 66.017C0.916044 66.9318 0.268411 68.7524 1.59832 69.9416C2.95793 71.1588 4.67034 71.6438 6.41845 72.0383C9.00721 72.6234 11.5582 73.3011 14.1939 73.6454C20.2673 74.438 26.2745 75.933 32.1049 77.8447C37.2669 79.5366 42.0216 81.8628 47.0903 83.6766C47.7825 83.9241 49.129 84.1606 49.6306 84.7251C50.5042 85.7083 50.0623 88.3264 50.0506 89.5032C50.0209 92.5271 49.8696 95.6101 50.2263 98.6157C50.2648 98.9395 50.4571 99.2067 50.7078 99.3835C50.787 100.94 50.8973 102.488 50.7612 104.09C50.5646 106.407 50.9192 108.565 50.9344 110.866C50.9499 113.357 50.7269 115.786 50.8874 118.283C51.179 122.811 51.2243 127.227 51.8337 131.746C52.4237 136.121 52.7963 140.465 53.3043 144.844C53.5235 146.729 53.8869 148.58 54.0647 150.467C54.2436 152.364 54.5144 154.484 55.9344 155.904C57.0713 157.04 58.8311 157.414 60.3629 156.893C62.2262 156.258 62.4606 154.748 63.4929 153.345C64.6202 151.813 66.0473 150.414 67.2164 148.887C68.5339 147.166 69.6829 145.367 70.8936 143.572C73.5397 139.648 77.0575 136.127 80.3688 132.763C83.7993 129.279 86.9696 125.376 89.5339 121.206C90.8062 119.136 91.9544 117.1 93.4516 115.179C94.8066 113.442 95.8165 111.946 95.1463 109.69C95.1357 109.657 95.1212 109.625 95.1099 109.593C96.2305 110.114 97.3557 110.624 98.4693 111.167C101.129 112.467 103.928 113.487 106.573 114.8C109.366 116.187 112.157 116.963 115.18 117.736C121.097 119.248 126.952 120.65 131.983 124.309C133.077 125.105 134.681 124.46 135.33 123.432C136.313 121.872 136.603 119.944 137.156 118.202C137.761 116.298 138.269 114.402 138.935 112.517C140.484 108.128 141.876 103.609 143.245 99.1601C144.545 94.9384 146.277 90.9385 147.623 86.7359C149.132 82.0215 150.485 77.2636 151.992 72.5523C153.39 68.184 154.711 63.7651 156.39 59.4975C158.023 55.3459 158.794 50.9821 160.615 46.8867C164.136 38.9663 167.922 31.1586 171.069 23.0936C172.926 18.3346 175.368 13.6032 176.661 8.65654C177.255 6.39512 179.292 1.58984 175.522 1.12109ZM47.9214 77.8833C46.5335 77.3618 45.6271 76.891 44.3972 76.1461C43.1055 75.3634 41.4953 75.1962 40.0996 74.6133C34.2349 72.161 28.1279 70.4245 21.8966 69.1579C18.668 68.5011 15.3499 68.5661 12.1192 67.962C11.5401 67.8534 10.9635 67.7325 10.3873 67.6127C10.971 67.4338 11.5447 67.256 12.087 67.0609C15.0286 66.0039 17.6173 64.5973 20.6756 63.9122C25.9047 62.7406 30.892 60.195 35.6736 57.9063C38.395 56.604 41.543 56.172 44.3976 55.2239C45.7346 54.7802 46.9659 54.1301 48.2855 53.6525C49.6914 53.1431 51.1946 52.936 52.6224 52.4951C55.2995 51.6679 57.7971 50.3652 60.3374 49.204C63.5219 47.7489 66.9106 46.8284 70.1506 45.5041C75.7661 43.2084 81.289 40.667 86.9296 38.4257C92.3716 36.264 98.0748 34.8814 103.337 32.2842C106.116 30.9126 108.998 30.0206 111.914 29.0001C115.062 27.8982 118.072 26.4318 121.176 25.2132C126.584 23.0893 131.794 20.5494 137.258 18.6044C140.077 17.6014 142.985 16.882 145.781 15.8144C148.563 14.7525 151.327 13.7308 154.141 12.793C154.101 12.8234 154.061 12.8499 154.022 12.881C152.197 14.2986 150.083 15.1495 148.159 16.4136C146.095 17.7694 144.236 19.3952 142.256 20.8643C140.562 22.1207 138.754 23.2191 137.081 24.5009C135.18 25.9563 133.294 27.55 131.343 28.9251C129.495 30.2282 127.977 31.8352 126.074 33.0722C123.886 34.4943 121.643 35.8271 119.415 37.186C117.643 38.2663 115.834 39.3134 114.199 40.5959C112.402 42.0047 110.648 42.9493 108.721 44.119C107.133 45.082 105.412 45.7236 103.825 46.6816C101.599 48.026 99.51 49.5882 97.2861 50.9422C93.2299 53.4107 89.4834 56.323 85.3565 58.6848C83.3832 59.8139 81.2692 60.7401 79.3797 62.0035C77.5549 63.2242 75.4161 63.5866 73.6418 64.8525C69.6419 67.7071 66.0106 71.0199 62.0764 73.9321C60.0235 75.4515 57.8812 76.7453 55.8977 78.3757C54.87 79.2206 53.8625 80.0627 52.9915 81.0723C51.8394 79.4112 49.7628 78.5747 47.9214 77.8833ZM150.465 19.2375C150.166 19.5284 149.873 19.8271 149.593 20.1428C149.539 20.204 149.5 20.2676 149.456 20.3302C147.87 21.4734 146.266 22.5902 144.657 23.6956C145.866 22.7164 147.049 21.7085 148.269 20.7399C148.97 20.1838 149.711 19.6992 150.465 19.2375ZM60.3901 137.444C59.898 139.666 59.3614 141.914 58.8891 144.159C58.735 143.264 58.6073 142.365 58.5384 141.457C58.2478 137.644 57.4121 134.033 56.6994 130.29C55.9553 126.382 55.7906 122.487 55.2196 118.57C54.8679 116.157 54.7491 113.786 54.6038 111.356C54.467 109.058 53.7763 106.887 53.6918 104.575C53.6037 102.174 53.3022 100.142 52.9017 97.7934C52.8119 97.2681 52.749 96.7364 52.6984 96.2022C53.0767 94.1483 53.4178 92.139 53.5437 89.9691C53.6423 88.262 53.6391 86.5592 53.707 84.8545C53.7144 84.6604 53.7246 84.4763 53.7342 84.2956C54.5618 83.7922 55.3303 83.1739 56.125 82.5807C58.1959 81.0362 60.1766 79.4557 62.3991 78.1325C66.3383 75.7873 69.6956 72.3674 73.4234 69.6779C74.2333 69.0939 74.9912 68.3901 75.8251 67.8471C76.8058 67.2083 77.9487 67.0464 79.0131 66.5911C80.7803 65.8342 82.3598 64.5513 84.074 63.6527C88.4745 61.3457 92.4614 58.5543 96.5953 55.8266C100.531 53.2297 104.484 50.5399 108.731 48.5234C112.48 46.7435 115.491 44.0946 118.975 41.9121C121.405 40.3898 124.119 39.003 126.647 37.4161C117.823 45.017 109.783 53.4291 101.547 61.6698C97.3533 65.8649 92.9259 69.7663 88.7951 74.0088C84.5738 78.3443 79.6529 81.9168 75.4377 86.2346C72.1429 89.6092 68.1659 93.2119 67.2843 98.0299C66.7593 100.898 65.965 103.682 65.586 106.58C65.1607 109.836 64.9094 113.111 64.5573 116.375C63.7859 123.519 61.9392 130.442 60.3901 137.444ZM170.968 12.197C169.361 16.0792 167.918 20.1414 166.012 23.8791C164.15 27.5323 162.839 31.54 161.178 35.3056C159.51 39.0879 157.526 42.7216 155.908 46.5268C154.336 50.2281 153.628 54.1609 152.126 57.8763C150.527 61.8303 149.283 65.9067 147.912 69.9438C146.424 74.3287 145.24 78.7985 143.727 83.1768C143.057 85.1175 142.531 87.1287 141.759 89.0295C140.972 90.9703 140.025 92.7827 139.401 94.7917C138.009 99.2693 136.491 103.701 135.085 108.175C134.419 110.295 133.538 112.359 132.963 114.502C132.676 115.574 132.351 116.616 132.019 117.673C131.972 117.825 131.933 117.984 131.9 118.148C127.311 115.143 122.125 113.677 116.692 112.254C114.89 111.782 112.916 111.488 111.182 110.82C109.702 110.25 108.313 109.394 106.834 108.79C103.607 107.475 100.466 105.92 97.3123 104.441C96.1559 103.898 95.2736 102.995 94.0547 102.561C92.4207 101.98 90.9802 101.461 89.4074 100.689C86.3325 99.1802 83.1435 97.5215 79.8247 96.6385C77.8981 96.1262 75.3514 94.8607 73.8741 96.9506C73.2512 97.8312 72.997 99.2838 72.6672 100.293C72.1341 101.923 71.8541 103.465 72.0235 105.182C72.0613 105.565 72.2486 105.889 72.5099 106.133C72.179 107.876 71.834 109.618 71.5975 111.38C71.2712 113.811 70.181 116.574 70.7392 119.018C70.8929 119.688 72.0341 119.741 72.1479 119.018C72.588 116.224 73.5291 113.668 73.8062 110.815C73.9497 109.34 74.2057 107.85 74.4111 106.358C74.6232 106.189 74.7865 105.934 74.8537 105.566C75.1241 104.085 75.6834 102.742 76.3996 101.422C76.4204 101.384 76.5583 101.179 76.7241 100.922C77.6104 101.476 78.7939 101.746 79.7152 102.13C81.248 102.77 82.7419 103.505 84.2284 104.246C86.7769 105.518 89.2211 106.736 91.8456 107.771C92.1598 107.895 92.4504 108.056 92.7339 108.23C92.3666 108.303 92.0135 108.48 91.7183 108.784C89.5371 111.035 87.5889 113.95 86.0384 116.692C83.9916 120.312 81.5743 123.691 78.8162 126.806C76.0796 129.896 73.1756 132.837 70.432 135.926C67.8552 138.827 66.0541 142.191 63.6523 145.195C63.1182 145.863 62.5667 146.509 61.9933 147.135C62.4373 145.03 62.9718 142.935 63.4391 140.835C64.8306 134.59 66.66 128.442 67.8039 122.143C68.879 116.217 68.8843 110.048 70.3171 104.198C70.9007 101.815 71.2309 98.8016 72.4173 96.6505C73.6415 94.4294 75.9361 92.607 77.6263 90.7242C81.4983 86.4086 86.3523 83.0587 90.4598 78.9682C94.6302 74.8152 98.9487 70.8837 103.107 66.7229C111.803 58.0226 120.231 48.9134 129.648 40.9901C132.1 38.9274 134.729 36.9431 137.012 34.6969C138.969 32.771 141.339 31.3233 143.51 29.6237C146.089 27.6048 148.672 25.5671 151.003 23.2636C151.158 23.1106 151.316 22.9681 151.472 22.8207C151.631 22.7404 151.789 22.6361 151.939 22.4856C155.311 19.1032 160.033 17.6099 163.688 14.6217C166.866 12.0223 169.6 9.00333 172.967 6.76985C172.38 8.61341 171.709 10.4075 170.968 12.197Z" fill="#F2F2F2"/>
<path d="M34.2573 99.0282C32.0811 99.5966 31.0563 101.815 29.901 103.548C28.6248 105.463 26.7759 107.118 27.2284 109.603C27.5059 111.125 29.7002 111.232 30.4115 110.019C30.8572 109.258 31.1308 108.428 31.6007 107.676C32.127 106.835 32.7294 106.06 33.1883 105.176C34.0042 103.602 35.0294 102.091 35.666 100.436C35.9909 99.5892 35.0336 98.8252 34.2573 99.0282Z" fill="#F2F2F2"/>
<path d="M25.3945 118.394C25.1877 118.165 24.732 118.147 24.5294 118.394C22.8022 120.495 22.2482 123.038 21.3369 125.549C20.5634 127.678 19.9097 130.681 21.0099 132.833C21.2775 133.357 22.0647 133.699 22.6311 133.493C23.7768 133.075 24.3078 132.309 24.4651 131.102C24.5591 130.377 24.3576 129.642 24.3756 128.918C24.4007 127.947 24.7249 127.068 24.9642 126.141C25.4358 124.315 26.904 120.056 25.3945 118.394Z" fill="#F2F2F2"/>
<path d="M27.411 153.036C26.7015 150.857 26.0659 147.306 24.356 145.703C24.128 145.489 23.7745 145.482 23.5461 145.703C21.5155 147.68 22.5287 151.362 23.059 153.767C23.4333 155.465 23.9028 157.145 24.7753 158.664C25.7485 160.359 26.9398 161.167 28.4306 162.342C29.0096 162.798 29.7251 162.495 29.8114 161.77C30.1819 158.69 28.3432 155.897 27.411 153.036Z" fill="#F2F2F2"/>
<path d="M50.2067 176.598C48.8079 175.898 47.7077 174.644 46.5242 173.639C45.2919 172.593 44.0577 171.649 42.9138 170.522C41.5471 169.175 37.9286 166.891 35.9464 167.358C35.6756 167.421 35.5477 167.711 35.6014 167.964C35.9365 169.542 36.5972 170.597 37.7447 171.738C39.0648 173.05 39.9588 174.593 41.3732 175.841C43.9216 178.089 46.8576 180.072 50.2067 178.268C50.8222 177.936 50.8515 176.921 50.2067 176.598Z" fill="#F2F2F2"/>
<path d="M78.6226 177.328C76.7394 175.838 74.3044 175.656 72.0031 176.1C69.0965 176.661 66.2833 177.014 63.3594 177.318C61.9018 177.47 61.9276 179.387 63.3594 179.568C64.5086 179.714 65.6399 180.577 66.8054 180.841C68.2442 181.168 69.6872 181.329 71.1582 181.194C73.2938 180.999 76.5128 181.082 78.3034 179.807C79.0369 179.284 79.4908 178.014 78.6226 177.328Z" fill="#F2F2F2"/>
<path d="M105.006 163.25C103.498 163.824 101.757 163.871 100.199 164.477C98.7907 165.024 97.4651 165.926 96.2239 166.776C95.1372 167.521 94.415 168.707 93.3806 169.424C92.9461 169.725 92.3883 169.807 91.9881 170.19C91.6328 170.53 91.484 171.095 91.1676 171.39C90.048 172.437 91.2627 173.931 92.5307 173.733C93.0232 173.656 93.523 173.395 93.9105 173.344C94.5687 173.256 95.0923 173.362 95.7778 173.142C97.1006 172.719 98.2202 171.756 99.4256 171.086C100.822 170.311 102.279 169.555 103.516 168.53C104.89 167.392 105.368 166.361 106.232 164.846C106.665 164.084 105.93 162.899 105.006 163.25Z" fill="#F2F2F2"/>
<path d="M132.323 147.339C129.673 145.434 126.009 146.566 123.276 147.704C120.126 149.017 117.65 151.19 115.572 153.861C114.947 154.665 115.48 156.33 116.724 155.84C119.469 154.758 122.229 153.693 125.002 152.68C127.568 151.744 130.453 151.442 132.627 149.696C133.448 149.036 133.023 147.842 132.323 147.339Z" fill="#F2F2F2"/>
<path d="M156.469 146.868C154.685 146.172 152.805 145.706 150.878 145.824C148.8 145.95 147.297 146.929 145.377 147.417C143.92 147.786 144.358 149.774 145.713 149.897C149.139 150.209 152.009 150.906 155.147 152.388C157.366 153.436 160.702 155.323 163.221 154.38C163.766 154.177 164.102 153.769 164.134 153.181C164.315 149.901 158.849 147.797 156.469 146.868Z" fill="#F2F2F2"/>
<path d="M178.777 160.098C177.901 159.409 177.001 159.099 176.063 158.547C175.255 158.071 174.61 157.348 173.793 156.871C172.494 156.113 170.707 157.689 171.633 159.031C172.192 159.842 172.401 160.791 172.987 161.599C173.586 162.424 174.351 163.092 175.037 163.839C176.34 165.259 178.416 167.416 180.553 166.554C181.096 166.334 181.73 165.94 181.821 165.285C182.137 163.012 180.443 161.408 178.777 160.098Z" fill="#F2F2F2"/>
<path d="M79.7236 117.204C79.7282 116.395 79.7544 115.592 79.7 114.783C79.5967 113.248 77.476 113.274 77.3314 114.783C77.1688 116.501 76.3745 119.103 77.9914 120.319C78.416 120.638 79.1096 120.476 79.4596 120.129C79.4903 120.099 79.5197 120.069 79.5504 120.039C79.7431 119.849 79.8322 119.59 79.8385 119.327C79.9499 118.664 79.7201 117.865 79.7236 117.204Z" fill="#F2F2F2"/>
<path d="M83.7877 114.197C83.6109 112.985 83.6993 111.679 82.5578 110.915C82.0399 110.568 81.2502 110.808 80.9557 111.335L80.8157 111.526C80.4117 111.936 80.4675 112.495 80.75 112.877C80.7496 113.004 80.7475 113.131 80.7404 113.258C80.7107 113.796 80.6259 114.323 80.6771 114.862C80.8041 116.189 81.8731 118.109 83.5045 117.347C84.8602 116.713 83.9347 115.205 83.7877 114.197Z" fill="#F2F2F2"/>
<path d="M63.6781 89.2519C63.7184 88.3232 63.6085 87.3694 63.5074 86.4609C63.4568 86.0077 63.385 85.5297 63.198 85.1115C63.1178 84.9327 63.0485 84.7913 62.9226 84.6385C62.8979 84.6088 62.8823 84.5894 62.8647 84.5671C62.8809 83.3938 61.1045 82.9191 60.8352 84.1913C60.7493 84.5986 60.6856 84.9776 60.8341 85.3742C60.9515 85.686 61.1374 85.8288 61.1876 86.1183C61.3969 87.2969 60.9235 88.6445 61.0218 89.8486C61.1187 91.0364 62.8053 91.7431 63.4458 90.5054C63.4939 90.4124 63.5356 90.3043 63.5738 90.1911L63.5773 90.1947C63.5788 90.1855 63.5798 90.1766 63.5812 90.1675C63.6742 89.8825 63.7205 89.5541 63.6781 89.2519Z" fill="#F2F2F2"/>
<path d="M68.2231 82.7991C68.0595 81.4572 67.573 80.3023 66.1639 79.9244C64.8927 79.5839 64.4056 81.3356 65.4788 81.8796C65.3562 81.7987 65.5273 81.7831 65.535 81.9069C65.5601 81.9175 65.581 81.932 65.6079 81.9412C65.5764 81.9302 65.5573 81.9199 65.535 81.9093C65.5354 81.9199 65.5386 81.9281 65.5364 81.9408C65.5046 82.1172 65.5661 82.4021 65.5647 82.5838C65.5601 83.0537 65.5103 83.5252 65.4668 83.9926C65.401 84.6954 65.2533 85.5509 65.6796 86.1677C66.3036 87.0717 67.4892 87.072 68.1132 86.1677C68.6891 85.3338 68.3345 83.7151 68.2231 82.7991Z" fill="#F2F2F2"/>
<path d="M65.479 81.8799C65.4931 81.8894 65.5122 81.899 65.5352 81.9103C65.5352 81.9092 65.5352 81.9082 65.5352 81.9071C65.5165 81.8986 65.4977 81.8894 65.479 81.8799Z" fill="#F2F2F2"/>
<path d="M71.1526 79.7924C70.6983 79.3713 69.9899 79.3441 69.5374 79.7924C69.4116 79.9168 69.2864 80.0409 69.1606 80.1653C68.7406 80.58 68.7929 81.1541 69.0771 81.5567C69.0043 81.7498 68.9219 81.9463 68.858 82.1326C68.6144 82.84 68.385 83.7736 68.8675 84.434C69.343 85.0841 70.1755 85.2651 70.8026 84.6832C71.4184 84.1119 71.5704 83.0726 71.6843 82.232C71.7932 81.4309 71.7896 80.3824 71.1526 79.7924Z" fill="#F2F2F2"/>
<path d="M76.2363 79.0039C76.2045 78.929 76.1731 78.854 76.1412 78.7791C76.1296 78.7519 76.1225 78.737 76.1151 78.7229C76.1161 78.7017 76.1151 78.6695 76.107 78.602C76.0896 78.4528 76.0437 78.3146 76.0165 78.1675C76.0083 78.1247 75.9638 77.7521 75.9832 77.9427C75.9055 77.1324 75.097 76.5346 74.3196 76.9878C73.8028 77.2894 73.4107 77.7422 72.9314 78.0014C72.4301 78.2718 72.2714 78.9654 72.5531 79.4454C72.8628 79.975 73.4793 80.0658 73.9976 79.8237C74.1262 79.7636 74.2475 79.6922 74.3652 79.6155C74.6392 79.9439 75.0065 80.179 75.4858 80.2161C76.0628 80.2617 76.3215 79.672 76.2568 79.2047C76.2904 79.3362 76.2841 79.269 76.2363 79.0039Z" fill="#F2F2F2"/>
</g>
<defs>
<clipPath id="clip0">
<rect width="181" height="181" fill="white" transform="translate(0.859375 0.539551)"/>
</clipPath>
</defs>
</svg>
