<svg id="Capa_1" enable-background="new 0 0 490.279 490.279" height="512" viewBox="0 0 490.279 490.279" width="512" xmlns="http://www.w3.org/2000/svg"><g><path d="m246.014 63.27-161.801 382.792h323.602z" fill="#ef8bbd"/><g fill="#b2e7f1"><ellipse cx="250.583" cy="346.771" rx="29.155" ry="29.155" transform="matrix(.16 -.987 .987 .16 -131.85 538.572)"/><ellipse cx="284.444" cy="240.956" rx="29.155" ry="29.155" transform="matrix(.16 -.987 .987 .16 1.036 483.131)"/><ellipse cx="202.077" cy="275.454" rx="29.155" ry="29.155" transform="matrix(.707 -.707 .707 .707 -135.589 223.569)"/><ellipse cx="159.612" cy="372.185" rx="29.155" ry="29.155" transform="matrix(.924 -.383 .383 .924 -130.279 89.412)"/><ellipse cx="331.946" cy="358.974" rx="29.155" ry="29.155" transform="matrix(.924 -.383 .383 .924 -112.106 154.356)"/><ellipse cx="240.065" cy="168.13" rx="29.155" ry="29.155" transform="matrix(.707 -.707 .707 .707 -48.573 218.996)"/></g><path d="m265.925 355.02h-143.092l-24.723 58.491h294.999l-132.532-315.719-26.996-4.783-12.618 29.852 77.43 183.185c9.824 23.24-7.237 48.974-32.468 48.974z" fill="#e068bd"/><path d="m228.74 141.257 22.708 53.722c10.446-4.434 17.773-14.786 17.773-26.849 0-16.102-13.053-29.155-29.155-29.155-4.018 0-7.845.813-11.326 2.282z" fill="#a7adf1"/><path d="m283.191 270.08c.416.017.833.031 1.253.031 16.102 0 29.155-13.053 29.155-29.155s-13.053-29.155-29.155-29.155c-8.653 0-16.422 3.773-21.761 9.76z" fill="#a7adf1"/><path d="m250.583 375.927c14.151 0 25.943-10.082 28.594-23.455-4.045 1.635-8.503 2.547-13.252 2.547h-43.306c3.559 12.085 14.728 20.908 27.964 20.908z" fill="#a7adf1"/><path d="m159.612 401.34c16.102 0 29.155-13.053 29.155-29.155 0-6.419-2.079-12.349-5.594-17.165h-47.123c-3.515 4.816-5.594 10.747-5.594 17.165 0 16.102 13.054 29.155 29.156 29.155z" fill="#a7adf1"/><path d="m303.107 61.656c0 7.063-11.024 11.883-13.571 18.025-2.64 6.367 1.647 17.548-3.151 22.346s-15.979.511-22.346 3.151c-6.142 2.547-10.962 13.571-18.025 13.571s-11.883-11.024-18.025-13.571c-6.367-2.64-17.548 1.647-22.346-3.151s-.51-15.979-3.151-22.346c-2.547-6.142-13.571-10.962-13.571-18.025s11.024-11.883 13.571-18.025c2.64-6.367-1.647-17.548 3.151-22.346s15.979-.51 22.346-3.151c6.142-2.547 10.962-13.571 18.025-13.571s11.883 11.024 18.025 13.571c6.367 2.64 17.548-1.647 22.346 3.151s.51 15.979 3.151 22.346c2.547 6.142 13.571 10.962 13.571 18.025z" fill="#ffe266"/><path d="m285.439 20.51c-3.406-2.11-7.613-1.627-11.453-1.537-2.52.098-5.031.219-7.514-.174-1.707-.278-3.129-.829-4.524-1.867-.098 4.963-.4 13.87.571 16.21 1.863 4.493 9.927 8.018 9.927 13.185 0 5.166-8.064 8.692-9.927 13.184-1.931 4.658 1.205 12.836-2.305 16.346s-11.688.374-16.345 2.305c-4.493 1.863-8.018 9.927-13.185 9.927s-8.692-8.064-13.185-9.927c-2.863-1.188-11.363-.665-16.385-.811 0 0 0 .001.001.001 2.159 2.65 2.368 6.131 2.311 9.43-.036 2.275-.209 4.643-.198 6.881.021 2.923.293 6.151 2.416 8.366 2.248 2.178 5.557 2.4 8.541 2.418 1.501.001 3.055-.073 4.602-.135 3.079-.097 6.29-.266 9.203.868 6.142 2.547 10.962 13.571 18.025 13.571s11.883-11.024 18.025-13.571c2.229-.884 4.676-.96 7.056-.934 2.333.035 4.767.217 7.057.198 3.219-.032 7.04-.431 8.985-3.333 1.212-1.837 1.549-4.077 1.637-6.242.218-4.436-.665-8.966.223-13.359.692-3.784 3.841-6.373 6.51-8.877 2.862-2.702 6.318-5.365 7.391-9.325.9-3.384-1.217-6.551-3.469-8.893-1.828-1.929-3.885-3.633-5.799-5.477-1.78-1.713-3.326-3.448-4.095-5.304-1.891-5.116-.303-11.059-.826-16.319-.214-2.404-.825-4.527-2.325-6.026-.292-.295-.609-.551-.946-.779z" fill="#efaa66"/><path d="m395.564 490.279h-300.849c-21.199 0-38.384-17.185-38.384-38.384 0-21.199 17.185-38.384 38.384-38.384h300.849c21.199 0 38.384 17.185 38.384 38.384 0 21.199-17.185 38.384-38.384 38.384z" fill="#ffe266"/><g><path d="m178.822 458.614c-7.406 0-14.841-.102-22.569-.306-5.52-.146-9.878-4.739-9.732-10.26.145-5.521 4.767-9.877 10.26-9.733 15.094.398 29.044.398 43.901 0 5.556-.136 10.115 4.208 10.264 9.729.148 5.521-4.207 10.116-9.729 10.264-7.61.204-14.988.306-22.395.306z" fill="#fff"/></g><g><path d="m112.751 458.312h-8.358c-5.522 0-10-4.477-10-10s4.478-10 10-10h8.358c5.522 0 10 4.477 10 10s-4.477 10-10 10z" fill="#fff"/></g><path d="m396.318 67.926 8.214 23.098c.352.989 1.048 1.773 1.927 2.169l20.521 9.246c2.899 1.306 2.899 5.925 0 7.232l-20.521 9.246c-.879.396-1.575 1.179-1.927 2.168l-8.214 23.098c-1.16 3.263-5.265 3.263-6.425 0l-8.214-23.098c-.352-.989-1.048-1.773-1.927-2.168l-20.521-9.246c-2.899-1.306-2.899-5.925 0-7.232l20.521-9.246c.879-.396 1.575-1.18 1.927-2.169l8.214-23.098c1.161-3.263 5.265-3.263 6.425 0z" fill="#b2e7f1"/><path d="m95.867 1.815 6.093 17.133c.261.734.777 1.315 1.429 1.609l15.222 6.858c2.151.969 2.151 4.395 0 5.364l-15.222 6.858c-.652.294-1.168.875-1.429 1.609l-6.093 17.134c-.861 2.421-3.905 2.421-4.766 0l-6.093-17.133c-.261-.734-.777-1.315-1.429-1.609l-15.223-6.858c-2.15-.969-2.15-4.395 0-5.364l15.222-6.858c.652-.294 1.168-.875 1.429-1.609l6.093-17.133c.862-2.421 3.906-2.421 4.767-.001z" fill="#b2e7f1"/><ellipse cx="91.204" cy="158.082" fill="#8bb6ef" rx="17.937" ry="17.937" transform="matrix(.23 -.973 .973 .23 -83.604 210.526)"/><circle cx="376.742" cy="15.498" fill="#8bb6ef" r="7.737"/><circle cx="125.025" cy="102.78" fill="#8bb6ef" r="7.737"/></g></svg>