<svg id="Capa_1" enable-background="new 0 0 496.604 496.604" height="512" viewBox="0 0 496.604 496.604" width="512" xmlns="http://www.w3.org/2000/svg"><g><path d="m87.565 430.64c96.528-77.862 208.738-149.953 333.96-217.257 10.939-5.879 13.14-20.624 4.359-29.406l-112.665-112.665c-8.804-8.804-23.636-6.588-29.439 4.427-63.15 119.858-135.38 231.316-217.398 333.718z" fill="#ffe266"/><g fill="#ffa585"><circle cx="177.522" cy="317.679" r="26.928"/><circle cx="263.013" cy="247.265" r="26.928"/><ellipse cx="281.188" cy="154.426" rx="26.928" ry="26.928" transform="matrix(.707 -.707 .707 .707 -26.838 244.06)"/><circle cx="381.494" cy="183.981" r="26.928"/></g><path d="m425.885 183.978-112.666-112.666c-8.804-8.804-23.636-6.588-29.439 4.427-5.527 10.49-11.149 20.892-16.816 31.253.622.438 1.226.915 1.788 1.476l81.225 81.225c6.331 6.331 4.744 16.96-3.142 21.199-85.911 46.176-163.314 95.48-230.575 148.518 8.936 6.079 11.694 17.135 19.226 24.896 1.733 1.786 5.539 2.086 7.137 3.965 82.444-60.786 178.264-120.796 278.905-174.888 10.937-5.88 13.138-20.624 4.357-29.405z" fill="#efaa66"/><path d="m263.013 274.193c14.872 0 26.928-12.056 26.928-26.928 0-1.493-.127-2.956-.361-4.383-14.595 8.482-28.914 17.066-42.937 25.759 4.537 3.479 10.21 5.552 16.37 5.552z" fill="#ef7c85"/><path d="m177.522 344.607c14.872 0 26.928-12.056 26.928-26.928 0-6.725-2.471-12.869-6.547-17.588-15.019 10.094-29.655 20.33-43.893 30.711 4.606 8.235 13.406 13.805 23.512 13.805z" fill="#ef7c85"/><ellipse cx="75.604" cy="421.582" fill="#ef8bbd" rx="78.431" ry="71.45" transform="matrix(.707 -.707 .707 .707 -275.961 176.94)"/><path d="m131.063 366.123c-27.259-27.259-73.165-25.763-103.827 2.879 22.619-20.621 56.097-21.528 76.04-1.584 20.587 20.588 18.957 55.596-3.642 78.195-22.599 22.598-57.608 24.229-78.195 3.642-20.587-20.587-18.957-55.596 3.642-78.195-30.629 30.629-32.839 78.079-4.936 105.981 27.903 27.903 75.353 25.693 105.981-4.936s32.839-78.078 4.937-105.982z" fill="#e068bd"/><g><path d="m43.795 419.471c-1.392 0-2.807-.293-4.156-.91-5.022-2.299-7.229-8.233-4.931-13.255 8-17.477 25.129-28.926 43.637-29.167.044 0 .089-.001.133-.001 5.462 0 9.925 4.391 9.996 9.87.072 5.522-4.346 10.058-9.869 10.129-10.819.141-20.912 7.008-25.712 17.493-1.68 3.674-5.306 5.841-9.098 5.841z" fill="#fff"/></g><g><path d="m367.412 61.884c-.546 0-1.1-.045-1.656-.138-5.448-.908-9.128-6.06-8.22-11.508l6.98-41.881c.908-5.448 6.061-9.126 11.508-8.22 5.448.908 9.128 6.06 8.22 11.508l-6.98 41.881c-.816 4.892-5.053 8.358-9.852 8.358z" fill="#d0844b"/></g><g><path d="m444.651 137.27c-4.547 0-8.661-3.122-9.732-7.742-1.248-5.38 2.101-10.753 7.481-12.001l41.36-9.596c5.38-1.244 10.753 2.101 12.001 7.481s-2.101 10.753-7.481 12.001l-41.36 9.596c-.76.176-1.521.261-2.269.261z" fill="#d0844b"/></g><g><path d="m416.932 90.403c-2.614 0-5.225-1.019-7.187-3.046-3.841-3.969-3.737-10.299.232-14.14l27.859-26.961c3.968-3.84 10.299-3.737 14.14.232s3.737 10.299-.232 14.14l-27.859 26.961c-1.942 1.879-4.449 2.814-6.953 2.814z" fill="#d0844b"/></g><path d="m128.458 8.907 8.214 23.098c.352.989 1.048 1.773 1.927 2.168l20.521 9.246c2.899 1.306 2.899 5.926 0 7.232l-20.521 9.246c-.879.396-1.575 1.18-1.927 2.168l-8.214 23.098c-1.16 3.263-5.265 3.263-6.425 0l-8.214-23.098c-.352-.989-1.048-1.773-1.927-2.168l-20.522-9.246c-2.899-1.306-2.899-5.925 0-7.232l20.521-9.246c.879-.396 1.575-1.18 1.927-2.168l8.214-23.098c1.161-3.263 5.265-3.263 6.426 0z" fill="#f7c4db"/><path d="m451.012 273.831 8.214 23.098c.352.989 1.048 1.773 1.927 2.168l20.521 9.246c2.899 1.306 2.899 5.926 0 7.232l-20.521 9.246c-.879.396-1.575 1.18-1.927 2.168l-8.214 23.098c-1.16 3.263-5.265 3.263-6.425 0l-8.214-23.098c-.352-.989-1.048-1.773-1.927-2.168l-20.521-9.246c-2.899-1.306-2.899-5.925 0-7.232l20.521-9.246c.879-.396 1.575-1.18 1.927-2.168l8.214-23.098c1.16-3.263 5.264-3.263 6.425 0z" fill="#f7c4db"/><path d="m87.717 178.455 6.093 17.133c.261.734.777 1.315 1.429 1.609l15.222 6.858c2.151.969 2.151 4.395 0 5.364l-15.222 6.858c-.652.294-1.168.875-1.429 1.609l-6.093 17.133c-.861 2.421-3.905 2.421-4.766 0l-6.093-17.133c-.261-.734-.777-1.315-1.429-1.609l-15.222-6.858c-2.151-.969-2.151-4.395 0-5.364l15.222-6.858c.652-.294 1.168-.875 1.429-1.609l6.093-17.133c.861-2.421 3.905-2.421 4.766 0z" fill="#f7c4db"/><ellipse cx="379.335" cy="388.771" fill="#ef8bbd" rx="17.937" ry="17.937" transform="matrix(.208 -.978 .978 .208 -79.833 678.948)"/><circle cx="154.659" cy="158.945" fill="#ef8bbd" r="7.737"/></g></svg>