<svg width="71" height="66" viewBox="0 0 71 66" fill="none" xmlns="http://www.w3.org/2000/svg">
<path d="M3.16809 13.4069C4.37235 8.60596 8.10324 4.90954 12.9089 3.72424C19.2393 2.16287 28.3014 0.285645 35.2796 0.285645C42.282 0.285644 51.3826 2.17585 57.7158 3.7404C62.4844 4.91842 66.1975 8.56929 67.4227 13.326C68.9159 19.1235 70.6414 27.1657 70.6414 33.374C70.6414 39.4925 68.9655 47.3922 67.4876 53.169C66.2346 58.067 62.351 61.7834 57.4154 62.8788C51.0892 64.2829 42.1529 65.9439 35.2796 65.9439C28.4308 65.9439 19.5337 64.2947 13.2115 62.8938C8.23857 61.7919 4.33649 58.0315 3.1051 53.089C1.66725 47.3179 0.0458985 39.4607 0.0458984 33.374C0.0458984 27.1981 1.71503 19.1998 3.16809 13.4069Z" fill="#00D916" fill-opacity="0.5"/>
<g clip-path="url(#clip0)">
<path d="M33.2757 15.0616L9.69045 39.0923C9.14451 39.6481 8.84375 40.3901 8.84375 41.1812C8.84375 41.9723 9.14451 42.7142 9.69045 43.27L11.4269 45.0397C12.5585 46.1913 14.3975 46.1913 15.5273 45.0397L35.3328 24.8606L55.1602 45.0621C55.7061 45.6179 56.4339 45.9248 57.21 45.9248C57.9868 45.9248 58.7146 45.6179 59.261 45.0621L60.9971 43.2924C61.543 42.7362 61.8438 41.9947 61.8438 41.2036C61.8438 40.4125 61.543 39.6705 60.9971 39.1147L37.3903 15.0616C36.8426 14.5045 36.1114 14.1985 35.3341 14.2003C34.5537 14.1985 33.8229 14.5045 33.2757 15.0616Z" fill="#F2F2F2"/>
<rect x="56.9463" y="21.1162" width="0.561474" height="0.114414" fill="#C4C4C4"/>
</g>
<defs>
<clipPath id="clip0">
<rect width="49.6558" height="53" fill="white" transform="translate(8.84375 57.9429) rotate(-90)"/>
</clipPath>
</defs>
</svg>
